PathFileType	4	(X/Y/Z)	Patient4_TMGait_0pt4_02_right_35.trc.trc
DataRate	CameraRate	NumFrames	NumMarkers	Units	OrigDataRate	OrigDataStartFrame	OrigNumFrames
72.164948453608	72.164948453608	6	33	mm	72.164948453608	18	       141
Frame#	Time	Sacral			L.Shoulder			Chest			R.Shoulder			Neck			R.ASIS			L.ASIS			R.Thigh.Superior			R.Thigh.Lateral			R.Thigh.Inferior			R.Patella			L.Thigh.Superior			L.Thigh.Lateral			L.Thigh.Inferior			L.Patella			L.Shank.Superior			L.Shank.Lateral			L.Shank.Inferior			R.Shank.Superior			R.Shank.Lateral			R.Shank.Inferior			R.Heel			R.Midfoot.Superior			R.Midfoot.Lateral			R.Toe			L.Heel			L.Midfoot.Lateral			L.Midfoot.Superior			L.Toe			L.Elbow			L.Wrist			R.Elbow			R.Wrist			
		X1	Y1	Z1	X2	Y2	Z2	X3	Y3	Z3	X4	Y4	Z4	X5	Y5	Z5	X6	Y6	Z6	X7	Y7	Z7	X8	Y8	Z8	X9	Y9	Z9	X10	Y10	Z10	X11	Y11	Z11	X12	Y12	Z12	X13	Y13	Z13	X14	Y14	Z14	X15	Y15	Z15	X16	Y16	Z16	X17	Y17	Z17	X18	Y18	Z18	X19	Y19	Z19	X20	Y20	Z20	X21	Y21	Z21	X22	Y22	Z22	X23	Y23	Z23	X24	Y24	Z24	X25	Y25	Z25	X26	Y26	Z26	X27	Y27	Z27	X28	Y28	Z28	X29	Y29	Z29	X30	Y30	Z30	X31	Y31	Z31	X32	Y32	Z32	X33	Y33	Z33	

18	46.345571428571	832.244802075415	1005.298215220480	413.283899223935	1014.196861706476	1440.480760838635	237.566886512247	1104.021851711000	1376.964867020080	407.592855205696	1002.529635702077	1445.405841637353	573.879577737818	978.933579506381	1500.567522087619	393.335049905831	1058.761599504864	949.620885504622	541.807078904033	1054.928797414015	970.434269527647	267.240462168230	1126.516211694901	766.006760922090	517.400942474431	1078.863643198889	650.806965878544	598.483848511926	1162.321502744043	604.034377247160	517.741269741790	1191.928137394152	520.080661994262	538.417681279853	1074.500941742635	744.164985345865	295.122093799098	966.984073791175	639.431956542689	231.991105083484	1036.975341704690	552.820385847196	295.007920417148	1027.045313592411	487.079089232326	304.536623476240	999.279249641299	417.245814333667	297.316972722282	904.413284849726	304.550198055888	250.394796923474	956.081668021425	193.495425965675	323.282672437645	1170.416892423650	434.741853223463	553.471676737092	1112.572658316215	328.799772076750	625.856480146648	1173.042887689127	235.346522502945	575.996554363470	1068.019896180426	52.631482894853	562.330384268263	1236.435801163583	120.018088761299	592.054753885971	1155.427723447301	50.120299457814	632.665214873285	1359.741999858158	77.952882326466	614.911281026413	827.587695040210	39.020254978620	373.590375608602	899.369107540472	34.555698648740	290.970756068991	983.684905602066	96.201596642979	315.549077655245	1111.639692699180	43.496155652462	285.647046796606	1094.358638561345	1118.914237041309	77.386915324273	1341.972765227088	1033.525799359979	67.569041724695	873.471883414428	1126.812531831780	688.604025637383	861.969797194670	866.122633724988	701.583503539474	
19	46.359428571429	832.537701907638	1004.281625063758	414.913262749317	1014.358841185032	1439.578276888371	239.546879684261	1103.713376100001	1376.252601432944	409.902978541165	1001.765132030742	1444.841971987377	575.797347278218	978.606303708318	1499.794593463765	395.175899525339	1058.381256857619	948.526114396398	544.117258073243	1055.493948488564	969.936582892575	269.405165200970	1124.099450274341	763.105597540542	520.211448561813	1074.628282045955	648.181262813763	600.299473412028	1158.049113327071	600.998637104508	519.737735867745	1187.057681355575	518.154569031390	539.546042822167	1072.969592873421	743.204092627917	296.747369871866	964.341684056770	639.589016059028	233.103670640232	1033.052260115459	552.227803419315	296.205513105040	1022.496374299455	486.685499280481	305.452317644396	994.521180601999	417.171025348320	298.056840996635	899.344921436907	304.859730653450	250.831993042795	950.721097858060	193.510786014790	323.546316448175	1167.392335623991	433.046550033951	554.369157652548	1111.459800163951	325.465930305892	625.900129571389	1174.365746965227	233.565039293813	575.804365581819	1073.499247637483	48.811451349989	560.846026833012	1240.749821056620	118.770635792720	591.079910830277	1160.812589543194	47.458744914184	631.276510096835	1364.789026706646	78.750930510237	613.853687673859	821.989088035902	39.115227555541	373.574672587387	893.747982638668	34.612162591689	290.950592833701	978.084197372661	96.269602817120	315.531457077709	1105.980740575344	43.550951480098	285.662927093086	1094.937998331699	1118.272717026337	79.360074069288	1343.701972247382	1036.893985683801	68.594757155999	869.868886653702	1127.374270827908	689.220607141638	856.180184132980	866.673752734992	701.476393417596	
20	46.373285714286	833.019161892825	1003.070834145089	416.831670817500	1014.340869327327	1438.597056884242	241.732636099871	1103.349143081865	1375.515574384498	412.378031977204	1000.948764861460	1444.125812153116	577.942870922397	978.168811014304	1498.913975186768	397.245792347905	1058.229629836216	947.361855645325	546.569465603941	1056.214798375199	969.385765412895	271.733989903095	1122.403666500191	760.423773582604	523.078384926025	1071.127529644865	645.550731397856	601.924885761010	1154.701991839062	598.236765522995	521.631491376675	1182.962089966063	516.110732645955	540.547993815964	1071.616226480584	742.170048003740	298.564973723536	961.924392636525	639.715584142069	234.371037082509	1029.350754857959	551.602147272638	297.551054619706	1018.166035268239	486.226986258930	306.530406992194	989.957623023941	417.038042072789	298.922577075536	894.428315618480	305.168657978490	251.341153424109	945.433140281266	193.489095205404	323.870245516334	1164.385134943887	431.048832842706	555.042610923501	1109.259463652023	322.426424495435	625.505406981909	1173.753538520973	231.600184303295	575.288184800547	1075.396728271709	46.102189311968	558.911207331862	1241.930836143730	116.973482695396	589.801666005925	1162.439918969825	45.168339010958	629.546689769414	1366.210741599202	77.911389066781	612.617151052389	816.389519198409	39.188487386846	373.570520880502	888.124924533531	34.671412887328	290.931410117073	972.467915426484	96.346712517088	315.533447409148	1100.318660409298	43.619641560158	285.677683951072	1095.120246687637	1117.381622974693	81.646404764222	1344.719449668850	1039.158310882767	69.816090467917	867.416693421840	1127.218671642745	690.114157670696	852.259153539504	866.456044814704	701.381749794000	
21	46.387142857143	833.657481646332	1001.702842334093	419.003705461551	1014.159379090993	1437.548890239975	244.136608195328	1102.939964161170	1374.762109623944	415.034480627648	1000.069093544267	1443.261335310754	580.329626739909	977.630755359843	1497.934104528904	399.557136913542	1058.313070882970	946.139984052136	549.159299759579	1057.082273880144	968.787111930987	274.229489200648	1121.501359452649	758.018696169694	525.952306045250	1068.425606569783	642.966159337119	603.324640386924	1152.360164580716	595.813540907587	523.397438075154	1179.737765132225	514.014478318709	541.376985585232	1070.461306766652	741.063431596750	300.559460153233	959.761573123180	639.793161476459	235.791173442363	1025.919245671189	550.931845181044	299.039945203283	1014.104677204501	485.680877330492	307.774657906233	985.632787939007	416.815864855756	299.917079695490	889.688197803227	305.458018561811	251.933793283213	940.227144680372	193.402454420635	324.255740614190	1161.553585895156	428.787489542978	555.480515658991	1106.248483077510	319.663237894410	624.787955489117	1171.484700441663	229.411977500607	574.503540320548	1074.034029560090	44.279165103389	556.740189489399	1240.303478777109	114.648659416912	588.301680827693	1160.707297420258	43.183586523456	627.659576458411	1364.451062186130	75.617903949552	611.278915208223	810.788438655665	39.207861223556	373.577523587730	882.501463832854	34.712899899066	290.914026413799	966.833293134030	96.421106457274	315.561190595560	1094.662224012094	43.701664331530	285.692147772910	1094.899610884197	1116.257791216013	84.233939712129	1345.049157162187	1040.302289547448	71.232579024068	866.051289895368	1126.349898828476	691.316502056891	850.194172174939	865.478059883923	701.398492385371	
22	46.401000000000	834.416111537935	1000.222986120114	421.392427454539	1013.841207642376	1436.452860991876	246.770337948706	1102.504111441188	1374.001583730446	417.886604263423	999.131467720931	1442.260828538354	582.968555129625	977.013164349805	1496.872987561643	402.120661136631	1058.632473933586	944.881377976344	551.880921984136	1058.074050235877	968.148164648559	276.891782659271	1121.413851702451	755.930152828666	528.781174041099	1066.558719668970	640.488114433964	604.494241099154	1151.043588835433	593.772961307850	525.018280054921	1177.421369556454	511.933768976031	542.003526715670	1069.531372201167	739.895504291185	302.704332040848	957.886123874198	639.800180150994	237.363972607790	1022.818892857726	550.205637453524	300.667020094457	1010.380608052663	485.019531720243	309.183606075689	981.600304166501	416.470059747961	301.043566951327	885.151785955281	305.710234205839	252.626735050633	935.113455394126	193.219931011066	324.702948994889	1159.046735515793	426.336396232687	555.698408343400	1102.772483763179	317.173862278771	623.895240073767	1167.950178397432	227.024418019404	573.525694407124	1069.962146836456	43.130384638482	554.549420558833	1236.365991648189	111.921350395533	586.674930067830	1156.234450989839	41.479099481538	625.794475702224	1360.133528921317	72.219351532833	609.914665536933	805.183702677403	39.138350485890	373.593940555822	876.879621316199	34.710900657194	290.900118477127	961.180597109181	96.477240866851	315.618981390103	1089.022872546678	43.791658736432	285.706119109855	1094.272020377915	1114.923378808933	87.113411082321	1344.709235012424	1040.321249311239	72.844158796995	865.694389149091	1124.804949845479	692.843295797482	849.948175029140	863.783503688170	701.620226079335	
23	46.414857142857	835.259764541623	998.680930763569	423.965991330967	1013.420392630491	1435.336937615709	249.641910470406	1102.064663050922	1373.245969602805	420.943241861547	998.157503102876	1441.145954162518	585.865956599933	976.345795498466	1495.759353639376	404.943598383481	1059.182206585472	943.617768519771	554.727155031052	1059.155902996454	967.479895460359	279.717093906852	1122.110020414983	754.185597888956	531.512339129574	1065.540238298304	638.186532770795	605.460897284585	1150.715092779228	592.139376684521	526.484655224126	1175.993598894191	509.938328413229	542.424035900480	1068.857640411571	738.688497713691	304.967296732841	956.334874087147	639.713605479892	239.093952485166	1020.124936441212	549.413891953792	302.428932083013	1007.082078045616	484.211520690948	310.751063639135	977.923717169651	415.965946122552	302.305665703073	880.849678319745	305.913100992425	253.441825065938	930.105074047291	192.911989595832	325.210983927668	1156.990973144184	423.798891242611	555.738158647319	1099.204142714549	314.970013073524	622.987959514492	1163.607381651148	224.517664037941	572.443327533805	1063.885824110804	42.471317318673	552.529909704786	1230.728820877005	108.994383075665	585.024368425575	1149.780531184344	40.056555757495	624.105660334941	1353.987034623926	68.167776432406	608.600644143159	799.571943383973	38.949068837466	373.616419761735	871.262099385944	34.638269718858	290.892084865718	955.514541527818	96.497281840848	315.708063218396	1083.413816118092	43.878524205652	285.717814414810	1093.235347086123	1113.407448200795	90.278953969617	1343.708606225627	1039.218991413344	74.651112136345	866.262447694020	1122.649969893253	694.695127744721	851.464827968787	861.448075033912	702.127490759925	
